<svg width="129" height="147" viewBox="0 0 129 147" fill="none" xmlns="http://www.w3.org/2000/svg">
<path d="M42.2431 47.0182H60.625C61.2458 47.0182 61.8412 46.7716 62.2802 46.3326C62.7191 45.8937 62.9657 45.2983 62.9657 44.6775C62.9657 44.0567 62.7191 43.4613 62.2802 43.0224C61.8412 42.5834 61.2458 42.3368 60.625 42.3368H42.2431C41.6223 42.3368 41.0269 42.5834 40.5879 43.0224C40.149 43.4613 39.9023 44.0567 39.9023 44.6775C39.9023 45.2983 40.149 45.8937 40.5879 46.3326C41.0269 46.7716 41.6223 47.0182 42.2431 47.0182V47.0182Z" fill="#3F3D3A"/>
<path d="M28.2001 61.7313H16.8309C16.2102 61.7313 15.6148 61.9779 15.1758 62.4169C14.7368 62.8559 14.4902 63.4512 14.4902 64.072V75.4412C14.4902 76.062 14.7368 76.6574 15.1758 77.0963C15.6148 77.5353 16.2102 77.7819 16.8309 77.7819H28.2001C28.8209 77.7819 29.4163 77.5353 29.8553 77.0963C30.2942 76.6574 30.5408 76.062 30.5408 75.4412V64.072C30.5408 63.4512 30.2942 62.8559 29.8553 62.4169C29.4163 61.9779 28.8209 61.7313 28.2001 61.7313V61.7313ZM25.8594 73.1005H19.1717V66.4128H25.8594V73.1005Z" fill="#3F3D3A"/>
<path d="M42.2431 72.1H77.0194C77.6402 72.1 78.2355 71.8534 78.6745 71.4144C79.1135 70.9755 79.3601 70.3801 79.3601 69.7593C79.3601 69.1385 79.1135 68.5431 78.6745 68.1042C78.2355 67.6652 77.6402 67.4186 77.0194 67.4186H42.2431C41.6223 67.4186 41.0269 67.6652 40.5879 68.1042C40.149 68.5431 39.9023 69.1385 39.9023 69.7593C39.9023 70.3801 40.149 70.9755 40.5879 71.4144C41.0269 71.8534 41.6223 72.1 42.2431 72.1V72.1Z" fill="#3F3D3A"/>
<path d="M28.2001 86.8157H16.8309C16.2102 86.8157 15.6148 87.0623 15.1758 87.5013C14.7368 87.9402 14.4902 88.5356 14.4902 89.1564V100.52C14.4902 101.141 14.7368 101.736 15.1758 102.175C15.6148 102.614 16.2102 102.861 16.8309 102.861H28.2001C28.8209 102.861 29.4163 102.614 29.8553 102.175C30.2942 101.736 30.5408 101.141 30.5408 100.52V89.151C30.5394 88.5312 30.2922 87.9372 29.8534 87.4994C29.4146 87.0615 28.82 86.8157 28.2001 86.8157V86.8157ZM25.8594 98.1849H19.1717V91.4971H25.8594V98.1849Z" fill="#3F3D3A"/>
<path d="M42.2431 97.1763H60.625C61.2458 97.1763 61.8412 96.9297 62.2802 96.4907C62.7191 96.0517 62.9657 95.4564 62.9657 94.8356C62.9657 94.2148 62.7191 93.6194 62.2802 93.1805C61.8412 92.7415 61.2458 92.4949 60.625 92.4949H42.2431C41.6223 92.4949 41.0269 92.7415 40.5879 93.1805C40.149 93.6194 39.9023 94.2148 39.9023 94.8356C39.9023 95.4564 40.149 96.0517 40.5879 96.4907C41.0269 96.9297 41.6223 97.1763 42.2431 97.1763Z" fill="#3F3D3A"/>
<path d="M28.2001 111.897H16.8309C16.2102 111.897 15.6148 112.144 15.1758 112.583C14.7368 113.022 14.4902 113.617 14.4902 114.238V125.607C14.4902 126.228 14.7368 126.824 15.1758 127.262C15.6148 127.701 16.2102 127.948 16.8309 127.948H28.2001C28.8209 127.948 29.4163 127.701 29.8553 127.262C30.2942 126.824 30.5408 126.228 30.5408 125.607V114.238C30.5408 113.617 30.2942 113.022 29.8553 112.583C29.4163 112.144 28.8209 111.897 28.2001 111.897V111.897ZM25.8594 123.267H19.1717V116.579H25.8594V123.267Z" fill="#3F3D3A"/>
<path d="M128.189 34.5028C127.436 32.3232 126.053 30.4159 124.216 29.022C122.379 27.6281 120.17 26.8102 117.868 26.6716C115.566 26.533 113.275 27.08 111.284 28.2435C109.293 29.4069 107.691 31.1345 106.682 33.208L101.639 43.5727L96.0829 54.994V22.6079C96.0826 21.9872 95.8358 21.3921 95.3968 20.9534L75.6652 1.22449C75.2265 0.785453 74.6314 0.53864 74.0107 0.53833H2.34071C1.71992 0.53833 1.12455 0.78494 0.68558 1.22391C0.246611 1.66288 0 2.25825 0 2.87904V144.659C0 145.28 0.246611 145.876 0.68558 146.315C1.12455 146.753 1.71992 147 2.34071 147H93.7395C94.3603 147 94.9557 146.753 95.3947 146.315C95.8336 145.876 96.0803 145.28 96.0803 144.659V108.306L127.646 43.4122C128.322 42.0369 128.718 40.5413 128.811 39.0119C128.904 37.4825 128.693 35.9499 128.189 34.5028V34.5028ZM91.9258 106.145L79.7033 115.315L79.3729 100.037L104.821 47.7258L117.382 53.8397L91.9258 106.145ZM76.3514 8.53019L88.0897 20.2672H76.3514V8.53019ZM4.68143 142.319V5.21976H71.67V22.6079C71.67 23.2287 71.9166 23.8241 72.3555 24.263C72.7945 24.702 73.3899 24.9486 74.0107 24.9486H91.3988V64.6177L74.9162 98.4979C74.7536 98.8307 74.6724 99.1975 74.6795 99.5679L75.0687 117.577H42.2439C41.6231 117.577 41.0277 117.823 40.5887 118.262C40.1497 118.701 39.9031 119.297 39.9031 119.917C39.9031 120.538 40.1497 121.134 40.5887 121.573C41.0277 122.011 41.6231 122.258 42.2439 122.258H77.0202C77.0985 122.254 77.1767 122.246 77.2542 122.234C77.3238 122.234 77.388 122.258 77.4615 122.258C77.9683 122.258 78.4613 122.094 78.866 121.789L91.3988 112.386V142.319H4.68143ZM123.444 41.363L119.425 49.6251L106.869 43.5178L110.882 35.2558C111.283 34.4314 111.842 33.694 112.528 33.0858C113.214 32.4776 114.013 32.0105 114.88 31.7111C115.746 31.4117 116.663 31.2859 117.578 31.3409C118.493 31.3959 119.389 31.6306 120.213 32.0316C121.037 32.4326 121.775 32.9921 122.383 33.6781C122.991 34.364 123.458 35.1631 123.758 36.0296C124.057 36.8961 124.183 37.8131 124.128 38.7282C124.073 39.6433 123.838 40.5386 123.437 41.363H123.444Z" fill="#3F3D3A"/>
<path d="M30.1127 40.3866C29.6186 40.0106 28.9955 39.8462 28.3802 39.9295C27.765 40.0128 27.208 40.3369 26.8317 40.8307L22.2826 46.8122L20.1212 44.6507C19.6831 44.2101 19.0879 43.9616 18.4665 43.9599C17.8452 43.9581 17.2486 44.2033 16.808 44.6414C16.3675 45.0795 16.119 45.6747 16.1172 46.296C16.1154 46.9173 16.3606 47.5139 16.7987 47.9545L20.8541 52.0113C21.2929 52.4503 21.888 52.6971 22.5087 52.6974H22.6652C22.9983 52.6746 23.3228 52.5809 23.6169 52.4227C23.911 52.2645 24.1679 52.0453 24.3706 51.7799L30.5567 43.6743C30.7438 43.4294 30.8807 43.15 30.9596 42.8521C31.0385 42.5543 31.0579 42.2437 31.0166 41.9384C30.9754 41.633 30.8743 41.3387 30.7192 41.0725C30.5641 40.8062 30.358 40.5731 30.1127 40.3866V40.3866Z" fill="#3F3D3A"/>
</svg>
