<svg width="133" height="58" viewBox="0 0 133 58" fill="none" xmlns="http://www.w3.org/2000/svg">
<g clip-path="url(#clip0_305_376)">
<path d="M28.763 57.3696C44.6483 57.3696 57.5259 44.5269 57.5259 28.6848C57.5259 12.8426 44.6483 0 28.763 0C12.8776 0 0 12.8426 0 28.6848C0 44.5269 12.8776 57.3696 28.763 57.3696Z" fill="#C9EE02"/>
<path d="M39.5332 14.6236C40.7222 14.6236 40.6612 16.1234 40.6612 16.1234V21.9354C40.6612 22.6853 40.0972 23.2478 39.5332 23.2478H13.9661C13.5902 23.2478 12.6502 23.0603 12.4622 21.9354C12.3386 21.1957 12.4622 16.8734 12.4622 16.1234C12.4622 14.9985 13.4022 14.6236 13.9661 14.6236H39.5332Z" fill="white" stroke="#466373"/>
<path d="M24.4941 34.3092H25.8101V27.9348C31.9512 27.9973 44.3086 28.1223 44.6094 28.1223C44.9102 28.1223 45.3614 27.9348 45.3614 27.3724C45.3614 24.497 45.4677 19.0664 45.3614 18.7482C45.1734 18.1858 44.7974 18.2482 44.6094 18.1858H40.6615V19.4981H44.0454V26.8099H25.2461C24.7949 26.8099 24.4941 26.9974 24.4941 27.5599V34.3092Z" fill="white" stroke="#466373"/>
<path d="M35.5858 19.4981C37.5441 19.344 39.7201 20.9363 40.6616 21.7068C40.6616 22.7855 40.0963 23.1836 39.7197 23.2478H13.9216C12.6506 23.2478 12.2746 21.5604 12.4626 21.5604C13.9216 21.5604 17.7264 18.9357 20.7343 19.6856C22.2382 20.0606 22.9907 21.1756 26.75 21.3729C30.322 21.5604 33.1378 19.6908 35.5858 19.4981Z" fill="#C9EE02" stroke="#466373"/>
<path d="M23.9302 34.3092H26.5621C27.314 34.3092 27.314 34.629 27.314 35.0592V46.3081C27.314 46.8705 27.126 47.2455 26.3741 47.2455H23.7422C23.1782 47.2455 22.9902 46.8705 22.9902 46.3081V35.0592C22.9902 34.3092 23.3662 34.3092 23.9302 34.3092Z" fill="#C9EE02" stroke="#466373"/>
<path d="M80.2838 3.78262H79.0195V27.7391H80.2838V3.78262Z" fill="#3F3D3A" stroke="#3F3D3A" stroke-width="1.5"/>
<path d="M89.1332 5.04349H70.8008V3.78262H89.1332V5.04349Z" fill="#3F3D3A" stroke="#3F3D3A" stroke-width="1.5"/>
<path d="M100.512 3.78262H99.248V27.7391H100.512V3.78262Z" fill="#3F3D3A" stroke="#3F3D3A" stroke-width="1.5"/>
<path d="M115.051 27.7391H113.787V3.78262H125.166C133.317 3.78262 134.332 18.5978 119.476 18.2826V17.0218C123.269 17.0218 128.327 16.0761 129.591 11.0326C130.144 8.8261 128.643 5.67393 125.166 5.0435H115.051V27.7391Z" fill="#3F3D3A"/>
<path d="M119.476 18.2826V17.0218M119.476 18.2826C134.332 18.5978 133.317 3.78262 125.166 3.78262C119.476 3.78262 114.735 3.78262 113.787 3.78262V27.7391H115.051V5.0435H125.166C128.643 5.67393 130.144 8.8261 129.591 11.0326C128.327 16.0761 123.269 17.0218 119.476 17.0218V18.2826ZM119.476 18.2826C119.476 18.0427 119.476 17.0218 119.476 17.0218V18.2826Z" stroke="#403F3A" stroke-width="1.5"/>
<path d="M80.2838 33.4131H79.0195V57.3696H80.2838V33.4131Z" fill="#3F3D3A" stroke="#3F3D3A" stroke-width="1.5"/>
<path d="M89.1332 34.6739H70.8008V33.4131H89.1332V34.6739Z" fill="#3F3D3A" stroke="#3F3D3A" stroke-width="1.5"/>
<path d="M115.051 57.3696H113.787V33.4131H125.166C133.317 33.4131 134.332 48.2283 119.476 47.9131V46.6522C123.269 46.6522 128.327 45.7065 129.591 40.6631C130.144 38.4565 128.643 35.3044 125.166 34.6739H115.051V57.3696Z" fill="#3F3D3A"/>
<path d="M119.476 47.9131V46.6522M119.476 47.9131C134.332 48.2283 133.317 33.4131 125.166 33.4131C119.476 33.4131 114.735 33.4131 113.787 33.4131V57.3696H115.051V34.6739H125.166C128.643 35.3044 130.144 38.4565 129.591 40.6631C128.327 45.7065 123.269 46.6522 119.476 46.6522V47.9131ZM119.476 47.9131C119.476 47.6731 119.476 46.6522 119.476 46.6522V47.9131Z" stroke="#403F3A" stroke-width="1.5"/>
<path d="M96.7199 56.0277V57.2842C96.7199 57.2842 91.0532 56.7391 91.3459 45.0334C91.4793 39.695 92.8264 33.4131 100.014 33.4131C106.011 33.4131 108.098 39.4022 108.098 45.0334C108.098 51.3804 106.518 57.2842 99.88 57.2842V56.0277C107.782 56.0277 106.901 45.0334 106.901 45.0334C106.901 45.0334 107.201 34.6673 100.014 34.6673C92.8264 34.6673 92.6102 42.2063 92.6102 45.0334C92.6102 47.8605 92.6102 54.5326 96.7199 56.0277Z" fill="#3F3D3A"/>
<path d="M99.88 57.2842C106.518 57.2842 108.098 51.3804 108.098 45.0334C108.098 39.4022 106.011 33.4131 100.014 33.4131C92.8264 33.4131 91.4793 39.695 91.3459 45.0334C91.0532 56.7391 96.7199 57.2842 96.7199 57.2842V56.0277C92.6102 54.5326 92.6102 47.8605 92.6102 45.0334C92.6102 42.2063 92.8264 34.6673 100.014 34.6673C107.201 34.6673 106.901 45.0334 106.901 45.0334C106.901 45.0334 107.782 56.0277 99.88 56.0277M99.88 57.2842C99.88 56.0276 99.88 56.0277 99.88 56.0277V57.2842ZM99.88 57.2842V56.0277V57.2842Z" stroke="#403F3A" stroke-width="1.5"/>
</g>
<defs>
<clipPath id="clip0_305_376">
<rect width="132.12" height="58" fill="white"/>
</clipPath>
</defs>
</svg>
