<svg width="170" height="148" viewBox="0 0 170 148" fill="none" xmlns="http://www.w3.org/2000/svg">
<path d="M167.292 62.8113H99.969V3.24672C99.969 2.52841 99.6836 1.83952 99.1757 1.3316C98.6678 0.823676 97.9789 0.53833 97.2606 0.53833H3.24062C2.52231 0.53833 1.83342 0.823676 1.3255 1.3316C0.817574 1.83952 0.532227 2.52841 0.532227 3.24672V65.272C0.532227 65.9903 0.817574 66.6792 1.3255 67.1871C1.83342 67.6951 2.52231 67.9804 3.24062 67.9804H63.2756L70.5635 75.2683V127.547C70.5635 128.265 70.8489 128.954 71.3568 129.462C71.8647 129.97 72.5536 130.255 73.2719 130.255H86.6684V144.303C86.6687 144.838 86.8277 145.362 87.1253 145.807C87.4229 146.252 87.8458 146.599 88.3405 146.804C88.8353 147.009 89.3796 147.062 89.9048 146.958C90.43 146.854 90.9125 146.596 91.2913 146.217L107.255 130.255H167.292C168.01 130.255 168.699 129.97 169.207 129.462C169.715 128.954 170 128.265 170 127.547V65.5196C170 64.8013 169.715 64.1124 169.207 63.6045C168.699 63.0966 168.01 62.8113 167.292 62.8113ZM64.3977 62.5636H5.94901V5.95512H94.5522V62.5636H81.1557C80.4374 62.5636 79.7485 62.849 79.2406 63.3569C78.7326 63.8648 78.4473 64.5537 78.4473 65.272V75.4865L66.3121 63.3514C65.8035 62.8456 65.115 62.5623 64.3977 62.5636ZM164.583 124.838H106.135C105.417 124.838 104.728 125.124 104.22 125.632L92.0852 137.766V127.551C92.0852 126.833 91.7999 126.144 91.2919 125.636C90.784 125.128 90.0951 124.843 89.3768 124.843H75.9803V80.6851L79.2397 83.9445C79.6185 84.323 80.1009 84.5807 80.6261 84.6851C81.1513 84.7895 81.6957 84.7358 82.1904 84.531C82.6851 84.3261 83.108 83.9792 83.4057 83.534C83.7033 83.0889 83.8623 82.5655 83.8625 82.03V68.228H164.583V124.838Z" fill="#3F3D3A"/>
<path d="M19.2982 36.6313H81.2044C81.9227 36.6313 82.6116 36.3459 83.1195 35.838C83.6274 35.3301 83.9128 34.6412 83.9128 33.9229C83.9128 33.2046 83.6274 32.5157 83.1195 32.0077C82.6116 31.4998 81.9227 31.2145 81.2044 31.2145H19.2982C18.5799 31.2145 17.891 31.4998 17.3831 32.0077C16.8752 32.5157 16.5898 33.2046 16.5898 33.9229C16.5898 34.6412 16.8752 35.3301 17.3831 35.838C17.891 36.3459 18.5799 36.6313 19.2982 36.6313Z" fill="#3F3D3A"/>
<path d="M130.922 113.756H86.8139C86.0956 113.756 85.4067 114.041 84.8987 114.549C84.3908 115.057 84.1055 115.746 84.1055 116.464C84.1055 117.182 84.3908 117.871 84.8987 118.379C85.4067 118.887 86.0956 119.172 86.8139 119.172H130.922C131.64 119.172 132.329 118.887 132.837 118.379C133.345 117.871 133.63 117.182 133.63 116.464C133.63 115.746 133.345 115.057 132.837 114.549C132.329 114.041 131.64 113.756 130.922 113.756Z" fill="#3F3D3A"/>
<path d="M86.8139 107.62H130.922C131.64 107.62 132.329 107.335 132.837 106.827C133.345 106.319 133.63 105.63 133.63 104.912C133.63 104.194 133.345 103.505 132.837 102.997C132.329 102.489 131.64 102.204 130.922 102.204H86.8139C86.0956 102.204 85.4067 102.489 84.8987 102.997C84.3908 103.505 84.1055 104.194 84.1055 104.912C84.1055 105.63 84.3908 106.319 84.8987 106.827C85.4067 107.335 86.0956 107.62 86.8139 107.62Z" fill="#3F3D3A"/>
<path d="M63.9867 44.7563H19.2982C18.5799 44.7563 17.891 45.0417 17.3831 45.5496C16.8752 46.0575 16.5898 46.7464 16.5898 47.4647C16.5898 48.1831 16.8752 48.8719 17.3831 49.3799C17.891 49.8878 18.5799 50.1731 19.2982 50.1731H63.9867C64.705 50.1731 65.3939 49.8878 65.9019 49.3799C66.4098 48.8719 66.6951 48.1831 66.6951 47.4647C66.6951 46.7464 66.4098 46.0575 65.9019 45.5496C65.3939 45.0417 64.705 44.7563 63.9867 44.7563Z" fill="#3F3D3A"/>
<path d="M130.923 90.5405C131.641 90.5405 132.33 90.2552 132.838 89.7473C133.346 89.2393 133.631 88.5504 133.631 87.8321C133.628 86.7211 133.847 85.6207 134.276 84.5958C134.705 83.5708 135.334 82.6421 136.128 81.8644C136.913 81.0755 137.85 80.4547 138.883 80.0396C139.915 79.6245 141.022 79.424 142.134 79.45C144.302 79.5207 146.361 80.4126 147.895 81.9452C149.43 83.4778 150.324 85.5363 150.397 87.7037C150.415 89.0593 150.105 90.3992 149.493 91.609C148.881 92.8187 147.985 93.8625 146.882 94.6511C144.556 96.3007 142.655 98.4805 141.338 101.01C140.02 103.54 139.324 106.347 139.307 109.199V109.488C139.307 110.207 139.592 110.896 140.1 111.404C140.608 111.911 141.297 112.197 142.015 112.197C142.733 112.197 143.422 111.911 143.93 111.404C144.438 110.896 144.723 110.207 144.723 109.488V109.216C144.739 107.225 145.229 105.266 146.152 103.502C147.075 101.738 148.405 100.219 150.032 99.0712C151.957 97.6961 153.496 95.8492 154.502 93.7078C155.508 91.5665 155.946 89.2025 155.775 86.843C155.603 84.4834 154.829 82.2075 153.524 80.2337C152.22 78.2598 150.431 76.6544 148.327 75.5716C146.224 74.4887 143.877 73.9647 141.513 74.05C139.149 74.1352 136.846 74.8268 134.826 76.0583C132.806 77.2898 131.137 79.02 129.978 81.0826C128.82 83.1452 128.211 85.471 128.21 87.8368C128.211 88.1924 128.281 88.5445 128.418 88.8729C128.555 89.2013 128.755 89.4995 129.007 89.7505C129.258 90.0016 129.557 90.2006 129.886 90.3361C130.215 90.4717 130.567 90.5411 130.923 90.5405Z" fill="#3F3D3A"/>
<path d="M144.511 115.422C144.447 115.258 144.363 115.103 144.264 114.958C144.162 114.813 144.048 114.679 143.922 114.555C143.606 114.241 143.218 114.008 142.792 113.879C142.365 113.75 141.913 113.727 141.476 113.814C141.305 113.842 141.139 113.894 140.983 113.969C140.812 114.029 140.65 114.113 140.501 114.216C140.353 114.312 140.218 114.426 140.099 114.557C139.973 114.68 139.859 114.814 139.758 114.959C139.664 115.107 139.581 115.262 139.511 115.424C139.445 115.589 139.393 115.76 139.356 115.934C139.325 116.108 139.309 116.284 139.31 116.46C139.308 116.997 139.466 117.522 139.764 117.968C140.062 118.415 140.486 118.762 140.983 118.966C141.311 119.104 141.664 119.172 142.02 119.167C142.373 119.167 142.723 119.098 143.05 118.962C143.376 118.826 143.672 118.627 143.922 118.376C144.179 118.128 144.384 117.83 144.522 117.501C144.661 117.171 144.731 116.817 144.728 116.459C144.731 116.282 144.71 116.105 144.666 115.933C144.636 115.757 144.584 115.585 144.511 115.422Z" fill="#3F3D3A"/>
</svg>
