<svg width="104" height="150" viewBox="0 0 104 150" fill="none" xmlns="http://www.w3.org/2000/svg">
<path d="M102.49 19.4992L84.2569 1.26735C83.8107 0.820884 83.2055 0.569895 82.5743 0.56958H16.3336C15.703 0.570661 15.0986 0.82192 14.6531 1.2682C14.2076 1.71448 13.9573 2.3193 13.9573 2.94989V13.7184H2.93988C2.30859 13.7184 1.70314 13.9692 1.25675 14.4156C0.810353 14.862 0.55957 15.4675 0.55957 16.0988V147.129C0.55957 147.76 0.810353 148.366 1.25675 148.812C1.70314 149.258 2.30859 149.509 2.93988 149.509H87.407C88.0383 149.509 88.6438 149.258 89.0902 148.812C89.5366 148.366 89.7874 147.76 89.7874 147.129V136.36H100.805C101.436 136.36 102.042 136.11 102.488 135.663C102.934 135.217 103.185 134.611 103.185 133.98V21.1763C103.184 20.5474 102.934 19.9445 102.49 19.4992ZM85.0349 144.749H5.32836V18.4791H66.8085V34.332C66.8085 34.9633 67.0593 35.5687 67.5057 36.0151C67.952 36.4615 68.5575 36.7123 69.1888 36.7123H85.0349V144.749ZM71.5691 21.8442L81.6752 31.9503H71.5691V21.8442ZM98.4326 131.6H89.7955V34.332C89.7952 33.7008 89.5442 33.0956 89.0977 32.6494L70.8713 14.4162C70.4252 13.9697 69.82 13.7188 69.1888 13.7184H18.7261V5.33021H81.5882L98.4272 22.1692L98.4326 131.6Z" fill="#3F3D3A"/>
<path d="M26.8498 47.0945H16.3383C15.707 47.0945 15.1016 47.3453 14.6552 47.7917C14.2088 48.2381 13.958 48.8435 13.958 49.4748V59.9822C13.958 60.6135 14.2088 61.2189 14.6552 61.6653C15.1016 62.1117 15.707 62.3625 16.3383 62.3625H26.8498C27.4811 62.3625 28.0865 62.1117 28.5329 61.6653C28.9793 61.2189 29.2301 60.6135 29.2301 59.9822V49.468C29.2283 48.8379 28.9767 48.2342 28.5305 47.7893C28.0843 47.3443 27.4799 47.0945 26.8498 47.0945ZM24.4695 57.6019H18.7186V51.8551H24.4654L24.4695 57.6019Z" fill="#3F3D3A"/>
<path d="M71.9637 52.3474H39.8227C39.1914 52.3474 38.586 52.5982 38.1396 53.0446C37.6932 53.491 37.4424 54.0964 37.4424 54.7277C37.4424 55.359 37.6932 55.9645 38.1396 56.4109C38.586 56.8573 39.1914 57.108 39.8227 57.108H71.9637C72.595 57.108 73.2005 56.8573 73.6469 56.4109C74.0933 55.9645 74.344 55.359 74.344 54.7277C74.344 54.0964 74.0933 53.491 73.6469 53.0446C73.2005 52.5982 72.595 52.3474 71.9637 52.3474Z" fill="#3F3D3A"/>
<path d="M26.8498 70.2787H16.3383C15.707 70.2787 15.1016 70.5295 14.6552 70.9759C14.2088 71.4223 13.958 72.0277 13.958 72.659V83.1664C13.958 83.7977 14.2088 84.4031 14.6552 84.8495C15.1016 85.2959 15.707 85.5467 16.3383 85.5467H26.8498C27.4811 85.5467 28.0865 85.2959 28.5329 84.8495C28.9793 84.4031 29.2301 83.7977 29.2301 83.1664V72.6536C29.2287 72.0232 28.9772 71.4192 28.531 70.9739C28.0848 70.5287 27.4801 70.2787 26.8498 70.2787ZM24.4695 80.7861H18.7186V75.0393H24.4654L24.4695 80.7861Z" fill="#3F3D3A"/>
<path d="M71.9637 75.5264H39.8227C39.1914 75.5264 38.586 75.7771 38.1396 76.2235C37.6932 76.6699 37.4424 77.2754 37.4424 77.9067C37.4424 78.538 37.6932 79.1434 38.1396 79.5898C38.586 80.0362 39.1914 80.287 39.8227 80.287H71.9637C72.595 80.287 73.2005 80.0362 73.6469 79.5898C74.0933 79.1434 74.344 78.538 74.344 77.9067C74.344 77.2754 74.0933 76.6699 73.6469 76.2235C73.2005 75.7771 72.595 75.5264 71.9637 75.5264Z" fill="#3F3D3A"/>
<path d="M26.8498 93.4534H16.3383C15.707 93.4534 15.1016 93.7041 14.6552 94.1505C14.2088 94.5969 13.958 95.2024 13.958 95.8337V106.341C13.958 106.972 14.2088 107.578 14.6552 108.024C15.1016 108.471 15.707 108.721 16.3383 108.721H26.8498C27.4811 108.721 28.0865 108.471 28.5329 108.024C28.9793 107.578 29.2301 106.972 29.2301 106.341V95.8337C29.2301 95.2024 28.9793 94.5969 28.5329 94.1505C28.0865 93.7041 27.4811 93.4534 26.8498 93.4534ZM24.4695 103.961H18.7186V98.214H24.4654L24.4695 103.961Z" fill="#3F3D3A"/>
<path d="M71.9637 98.7063H39.8227C39.1914 98.7063 38.586 98.9571 38.1396 99.4035C37.6932 99.8499 37.4424 100.455 37.4424 101.087C37.4424 101.718 37.6932 102.323 38.1396 102.77C38.586 103.216 39.1914 103.467 39.8227 103.467H71.9637C72.595 103.467 73.2005 103.216 73.6469 102.77C74.0933 102.323 74.344 101.718 74.344 101.087C74.344 100.455 74.0933 99.8499 73.6469 99.4035C73.2005 98.9571 72.595 98.7063 71.9637 98.7063Z" fill="#3F3D3A"/>
<path d="M26.8498 116.634H16.3383C15.707 116.634 15.1016 116.884 14.6552 117.331C14.2088 117.777 13.958 118.383 13.958 119.014V129.521C13.958 130.153 14.2088 130.758 14.6552 131.204C15.1016 131.651 15.707 131.902 16.3383 131.902H26.8498C27.4811 131.902 28.0865 131.651 28.5329 131.204C28.9793 130.758 29.2301 130.153 29.2301 129.521V119.014C29.2301 118.383 28.9793 117.777 28.5329 117.331C28.0865 116.884 27.4811 116.634 26.8498 116.634ZM24.4695 127.141H18.7186V121.394H24.4654L24.4695 127.141Z" fill="#3F3D3A"/>
<path d="M71.9637 121.887H39.8227C39.1914 121.887 38.586 122.137 38.1396 122.584C37.6932 123.03 37.4424 123.636 37.4424 124.267C37.4424 124.898 37.6932 125.504 38.1396 125.95C38.586 126.397 39.1914 126.647 39.8227 126.647H71.9637C72.595 126.647 73.2005 126.397 73.6469 125.95C74.0933 125.504 74.344 124.898 74.344 124.267C74.344 123.636 74.0933 123.03 73.6469 122.584C73.2005 122.137 72.595 121.887 71.9637 121.887Z" fill="#3F3D3A"/>
</svg>
