<svg width="161" height="30" viewBox="0 0 161 30" fill="none" xmlns="http://www.w3.org/2000/svg">
<path d="M15 0L18.3677 10.3647H29.2658L20.4491 16.7705L23.8168 27.1353L15 20.7295L6.18322 27.1353L9.55093 16.7705L0.734152 10.3647H11.6323L15 0Z" fill="#FFDB5A"/>
<path d="M48 0L51.3677 10.3647H62.2658L53.4491 16.7705L56.8168 27.1353L48 20.7295L39.1832 27.1353L42.5509 16.7705L33.7342 10.3647H44.6323L48 0Z" fill="#FFDB5A"/>
<path d="M80 0L83.3677 10.3647H94.2658L85.4491 16.7705L88.8168 27.1353L80 20.7295L71.1832 27.1353L74.5509 16.7705L65.7342 10.3647H76.6323L80 0Z" fill="#FFDB5A"/>
<path d="M113 0L116.368 10.3647H127.266L118.449 16.7705L121.817 27.1353L113 20.7295L104.183 27.1353L107.551 16.7705L98.7342 10.3647H109.632L113 0Z" fill="#FFDB5A"/>
<path d="M146 0L149.368 10.3647H160.266L151.449 16.7705L154.817 27.1353L146 20.7295L137.183 27.1353L140.551 16.7705L131.734 10.3647H142.632L146 0Z" fill="#FFDB5A"/>
</svg>
