<svg width="40" height="39" viewBox="0 0 40 39" fill="none" xmlns="http://www.w3.org/2000/svg">
<path d="M23.5667 19.4909C23.5667 21.5513 21.8965 23.2215 19.8361 23.2215C17.7757 23.2215 16.1055 21.5513 16.1055 19.4909C16.1055 17.4305 17.7757 15.7603 19.8361 15.7603C21.8965 15.7603 23.5667 17.4305 23.5667 19.4909Z" fill="white"/>
<path d="M28.5613 12.8905C28.3819 12.4046 28.0958 11.9647 27.7241 11.6037C27.363 11.2319 26.9235 10.9458 26.4372 10.7665C26.0429 10.6133 25.4504 10.431 24.3593 10.3813C23.1789 10.3275 22.8249 10.3159 19.8366 10.3159C16.848 10.3159 16.4941 10.3272 15.314 10.381C14.2228 10.431 13.6301 10.6133 13.2361 10.7665C12.7498 10.9458 12.3099 11.2319 11.9492 11.6037C11.5774 11.9647 11.2913 12.4043 11.1117 12.8905C10.9585 13.2849 10.7762 13.8776 10.7266 14.9688C10.6727 16.1489 10.6611 16.5028 10.6611 19.4914C10.6611 22.4797 10.6727 22.8336 10.7266 24.014C10.7762 25.1052 10.9585 25.6976 11.1117 26.092C11.2913 26.5783 11.5771 27.0178 11.9489 27.3789C12.3099 27.7506 12.7495 28.0367 13.2358 28.2161C13.6301 28.3695 14.2228 28.5518 15.314 28.6015C16.4941 28.6553 16.8477 28.6666 19.8363 28.6666C22.8252 28.6666 23.1792 28.6553 24.359 28.6015C25.4501 28.5518 26.0429 28.3695 26.4372 28.2161C27.4133 27.8395 28.1848 27.0681 28.5613 26.092C28.7144 25.6976 28.8967 25.1052 28.9467 24.014C29.0005 22.8336 29.0118 22.4797 29.0118 19.4914C29.0118 16.5028 29.0005 16.1489 28.9467 14.9688C28.897 13.8776 28.7147 13.2849 28.5613 12.8905ZM19.8366 25.2382C16.6624 25.2382 14.0893 22.6653 14.0893 19.4911C14.0893 16.3169 16.6624 13.7441 19.8366 13.7441C23.0105 13.7441 25.5837 16.3169 25.5837 19.4911C25.5837 22.6653 23.0105 25.2382 19.8366 25.2382ZM25.8109 14.86C25.0692 14.86 24.4678 14.2586 24.4678 13.5169C24.4678 12.7751 25.0692 12.1738 25.8109 12.1738C26.5526 12.1738 27.154 12.7751 27.154 13.5169C27.1537 14.2586 26.5526 14.86 25.8109 14.86Z" fill="white"/>
<path d="M19.8364 0C9.07361 0 0.345703 8.72791 0.345703 19.4907C0.345703 30.2534 9.07361 38.9813 19.8364 38.9813C30.5991 38.9813 39.327 30.2534 39.327 19.4907C39.327 8.72791 30.5991 0 19.8364 0ZM30.9607 24.1049C30.9066 25.2963 30.7172 26.1097 30.4406 26.8217C29.8592 28.325 28.6707 29.5135 27.1674 30.0949C26.4557 30.3715 25.642 30.5606 24.4509 30.615C23.2574 30.6695 22.8761 30.6826 19.8367 30.6826C16.7969 30.6826 16.4159 30.6695 15.2221 30.615C14.031 30.5606 13.2173 30.3715 12.5057 30.0949C11.7586 29.8138 11.0823 29.3734 10.5232 28.8039C9.95393 28.245 9.51347 27.5684 9.23243 26.8217C8.95584 26.11 8.76639 25.2963 8.71227 24.1052C8.65725 22.9114 8.64446 22.5301 8.64446 19.4907C8.64446 16.4512 8.65725 16.0699 8.71197 14.8764C8.7661 13.685 8.95525 12.8716 9.23183 12.1597C9.51288 11.4129 9.95363 10.7363 10.5232 10.1775C11.082 9.60793 11.7586 9.16747 12.5054 8.88643C13.2173 8.60984 14.0307 8.42069 15.2221 8.36627C16.4156 8.31184 16.7969 8.29875 19.8364 8.29875C22.8758 8.29875 23.2571 8.31184 24.4506 8.36656C25.642 8.42069 26.4554 8.60984 27.1674 8.88613C27.9141 9.16717 28.5907 9.60793 29.1499 10.1775C29.7191 10.7366 30.1598 11.4129 30.4406 12.1597C30.7175 12.8716 30.9066 13.685 30.961 14.8764C31.0155 16.0699 31.0283 16.4512 31.0283 19.4907C31.0283 22.5301 31.0155 22.9114 30.9607 24.1049Z" fill="white"/>
</svg>
