<svg width="39" height="39" viewBox="0 0 39 39" fill="none" xmlns="http://www.w3.org/2000/svg">
<circle cx="19.5092" cy="19.4907" r="19.4907" fill="white"/>
<path d="M31.672 26.4638C31.5996 26.3426 31.1518 25.3696 28.997 23.3697C26.7413 21.2755 27.0443 21.6156 29.7613 17.9945C31.4161 15.7893 32.0777 14.4426 31.8706 13.8668C31.6737 13.318 30.4566 13.4628 30.4566 13.4628L26.4096 13.4864C26.4096 13.4864 26.11 13.446 25.8861 13.579C25.6689 13.7103 25.5292 14.0133 25.5292 14.0133C25.5292 14.0133 24.8878 15.7203 24.0327 17.1714C22.2297 20.2335 21.5076 20.3951 21.213 20.2049C20.5278 19.7621 20.6995 18.4238 20.6995 17.4744C20.6995 14.5065 21.149 13.2692 19.8225 12.9494C19.3814 12.8433 19.0582 12.7726 17.932 12.7608C16.4876 12.7457 15.2638 12.7659 14.5719 13.1042C14.1107 13.3298 13.7555 13.8332 13.9726 13.8618C14.2403 13.8971 14.8463 14.0251 15.1678 14.4628C15.5837 15.0267 15.5685 16.296 15.5685 16.296C15.5685 16.296 15.8075 19.7891 15.0113 20.2234C14.4642 20.5213 13.7151 19.9136 12.1074 17.1343C11.2842 15.7118 10.6614 14.1379 10.6614 14.1379C10.6614 14.1379 10.5418 13.8449 10.3281 13.6884C10.0688 13.4982 9.70519 13.4376 9.70519 13.4376L5.85692 13.4611C5.85692 13.4611 5.27951 13.478 5.06741 13.7288C4.87886 13.9527 5.05225 14.4139 5.05225 14.4139C5.05225 14.4139 8.06555 21.4624 11.4761 25.016C14.6056 28.2734 18.1576 28.0596 18.1576 28.0596H19.7669C19.7669 28.0596 20.2534 28.0058 20.5009 27.7381C20.7298 27.4923 20.7214 27.0311 20.7214 27.0311C20.7214 27.0311 20.6894 24.8713 21.6927 24.5531C22.6809 24.24 23.9502 26.6405 25.2952 27.5647C26.312 28.2633 27.0847 28.1101 27.0847 28.1101L30.6821 28.0596C30.6821 28.0596 32.5642 27.9435 31.672 26.4638Z" fill="#466373"/>
</svg>
